<?xml version="1.0" encoding="utf-8"?>
<!-- Generator: Adobe Illustrator 28.0.0, SVG Export Plug-In . SVG Version: 6.00 Build 0)  -->
<svg version="1.1" xmlns="http://www.w3.org/2000/svg" xmlns:xlink="http://www.w3.org/1999/xlink" x="0px" y="0px"
	 viewBox="0 0 112 56" style="enable-background:new 0 0 112 56;" xml:space="preserve">
<style type="text/css">
	.st0{fill:#001A54;}
	.st1{fill:#5500B4;}
	.st2{fill:#FFAFFF;stroke:#001A54;stroke-linecap:round;stroke-linejoin:round;stroke-miterlimit:10;}
	.st3{fill:#FDDEFF;stroke:#001A54;stroke-linecap:round;stroke-linejoin:round;stroke-miterlimit:10;}
	.st4{fill:#FF73FA;stroke:#001A54;stroke-linecap:round;stroke-linejoin:round;stroke-miterlimit:10;}
	.st5{fill:#DC46F3;stroke:#001A54;stroke-linecap:round;stroke-linejoin:round;stroke-miterlimit:10;}
	.st6{fill:#96E7FF;stroke:#001A54;stroke-linecap:round;stroke-linejoin:round;stroke-miterlimit:10;}
	.st7{fill:#D2F5FF;stroke:#001A54;stroke-linecap:round;stroke-linejoin:round;stroke-miterlimit:10;}
	.st8{fill:#52C9FF;stroke:#001A54;stroke-linecap:round;stroke-linejoin:round;stroke-miterlimit:10;}
	.st9{fill:#0091FF;stroke:#001A54;stroke-linecap:round;stroke-linejoin:round;stroke-miterlimit:10;}
	.st10{fill:#96E7FF;}
	
		.st11{fill-rule:evenodd;clip-rule:evenodd;fill:#FFAFFF;stroke:#001A54;stroke-linecap:round;stroke-linejoin:round;stroke-miterlimit:10;}
	.st12{fill-rule:evenodd;clip-rule:evenodd;fill:#FFAFFF;}
	
		.st13{fill-rule:evenodd;clip-rule:evenodd;fill:#A200E6;stroke:#001A54;stroke-linecap:round;stroke-linejoin:round;stroke-miterlimit:10;}
	
		.st14{fill-rule:evenodd;clip-rule:evenodd;fill:#D2F5FF;stroke:#001A54;stroke-linecap:round;stroke-linejoin:round;stroke-miterlimit:10;}
	
		.st15{fill-rule:evenodd;clip-rule:evenodd;fill:#001A54;stroke:#52C9FF;stroke-linecap:round;stroke-linejoin:round;stroke-miterlimit:10;}
	.st16{fill-rule:evenodd;clip-rule:evenodd;fill:#001A54;}
	.st17{fill:#52C9FF;}
	.st18{fill:#001A54;stroke:#52C9FF;stroke-linecap:round;stroke-linejoin:round;stroke-miterlimit:10;}
	
		.st19{fill-rule:evenodd;clip-rule:evenodd;fill:#001A54;stroke:#FF73FA;stroke-linecap:round;stroke-linejoin:round;stroke-miterlimit:10;}
	.st20{fill:#FF73FA;}
	.st21{fill:#52C9FF;stroke:#FF73FA;stroke-linecap:round;stroke-linejoin:round;stroke-miterlimit:10;}
	
		.st22{fill-rule:evenodd;clip-rule:evenodd;fill:#1446EB;stroke:#001A54;stroke-linecap:round;stroke-linejoin:round;stroke-miterlimit:10;}
	.st23{fill-rule:evenodd;clip-rule:evenodd;fill:#A200E6;stroke:#001A54;stroke-miterlimit:10;}
	.st24{fill-rule:evenodd;clip-rule:evenodd;fill:#A200E6;stroke:#001A54;stroke-linejoin:round;stroke-miterlimit:10;}
	.st25{fill-rule:evenodd;clip-rule:evenodd;fill:#1446EB;stroke:#001A54;stroke-miterlimit:10;}
	.st26{fill-rule:evenodd;clip-rule:evenodd;fill:#1446EB;stroke:#001A54;stroke-linejoin:round;stroke-miterlimit:10;}
	.st27{fill-rule:evenodd;clip-rule:evenodd;fill:#001A54;stroke:#52C9FF;stroke-miterlimit:10;}
	.st28{fill-rule:evenodd;clip-rule:evenodd;fill:#001A54;stroke:#52C9FF;stroke-linejoin:round;stroke-miterlimit:10;}
	.st29{fill-rule:evenodd;clip-rule:evenodd;fill:#001A54;stroke:#FF73FA;stroke-miterlimit:10;}
	.st30{fill-rule:evenodd;clip-rule:evenodd;fill:#001A54;stroke:#FF73FA;stroke-linejoin:round;stroke-miterlimit:10;}
</style>
<g id="Hintergrund">
</g>
<g id="Bahn">
</g>
<g id="Pitstop">
</g>
<g id="Items">
</g>
<g id="QR-Code_x5F_positiv">
</g>
<g id="QR-Code_x5F_negativ">
</g>
<g id="Fahrzeuge" transform="rotate(180, 56, 28)">
	<g>
		<path class="st19" d="M43.9,47.1c5.2,2.1,16.6,7.5,31.7,7.5c11.5,0,24.7-3.2,28.8-4.9c2.1-0.9,3.1-1.9,3.6-4.1
			c0.6-2.9,1.3-10.4,1.3-17.7s-0.7-14.8-1.3-17.7c-0.5-2.2-1.4-3.2-3.6-4.1c-4.1-1.8-17.4-4.9-28.8-4.9c-15.1,0-26.6,5.5-31.7,7.5
			V47.1z"/>
		<g>
			<path class="st16" d="M68.1,52.9c-2.2-1.9-2.4-4.6-2.5-5.4s-0.2-1.4-3.9-0.7c-3.9,0.7-7.7,0.9-12.2,1c-3.3,0.1-3.8,0.9-6.1,2.9
				c-2.9,2.6-4.9,4-14.3,4c-11.2,0-13.5-1.1-16.6-4C7.2,45.7,2.7,37.8,2.7,28s4.5-17.7,9.7-22.6c3.1-2.9,5.4-4,16.6-4
				c9.4,0,11.4,1.4,14.3,4c2.3,2,2.7,2.8,6.1,2.9c4.5,0.1,8.3,0.3,12.2,1c3.7,0.6,3.8,0.1,3.9-0.7s0.4-3.5,2.5-5.4"/>
			<path class="st20" d="M68.1,52.9c-1.4-1.2-2.3-3-2.6-4.8c-0.2-1.2-0.2-1.5-1.5-1.4c-4.5,0.7-9.1,1.4-13.7,1.5
				c-1.9,0.1-3.6,0.1-4.9,1.3c-1.3,1.2-2.6,2.5-4.3,3.6c-3.3,2-7.2,2-10.9,2.1c-3.7,0-7.4,0-11.1-0.6c-3.8-0.5-6.9-3.1-9.3-6
				C4.9,42.9,2.1,35.5,2.2,28c0-7.5,2.7-14.9,7.6-20.6c2.4-2.9,5.5-5.5,9.3-6c3.7-0.6,7.4-0.6,11.1-0.6C33.9,1,37.8,1,41.1,3
				c2.5,1.3,3.8,4,6.5,4.6C53.2,7.9,58.4,8.3,64,9.3c0.4,0,0.9,0,1.2-0.2c0.2-0.2,0.2-0.8,0.3-1.2c0.3-1.8,1.1-3.6,2.6-4.8
				c-1.6,1.4-2.2,3.5-2.4,5.5c0,1-1,1.1-1.7,1.1c-4.6-0.5-9.1-1-13.7-0.9c-0.9,0-1.9,0-2.8-0.2c-2.9-0.5-4.5-3.5-6.8-4.8
				C37.5,2,33.7,2,30.2,1.8c-3.6,0-7.3,0-10.9,0.6c-3.7,0.5-6.4,2.9-8.7,5.7C5.8,13.6,3.1,20.8,3.2,28c0,7.2,2.6,14.4,7.4,19.9
				c2.3,2.7,5,5.2,8.7,5.7c5.3,0.8,10.9,0.8,16.3,0.2c3.8-0.3,6.5-2.5,9.2-5.1c1.4-1.4,3.7-1.5,5.5-1.5c4.6,0.1,9.1-0.4,13.7-0.9
				c0.7,0,1.7,0.1,1.7,1.1C65.8,49.4,66.5,51.5,68.1,52.9L68.1,52.9z"/>
		</g>
		<g>
			<path class="st16" d="M13.5,50.4c-3.9-4.1-5.3-9.5-6-14C7,32.8,4.7,31,4.7,31V25c0,0,2.3-1.7,2.9-5.4c0.7-4.5,2-9.8,6-14"/>
			<path class="st20" d="M13.5,50.4c-3.3-3.2-5.1-7.6-6-12c-0.4-2.5-1-5.3-3.1-7c-0.1-0.1-0.2-0.2-0.2-0.4c0-2,0-4,0-6.1
				c0-0.1,0.1-0.3,0.2-0.4c1.3-1,2.2-2.7,2.6-4.3c0.6-3.5,1.5-7.2,3.2-10.4c0.9-1.6,2-3.1,3.3-4.3c-2.4,2.7-3.8,6.1-4.7,9.6
				C8,18.7,8.1,22.8,5,25.3c0,0,0.2-0.4,0.2-0.4c0,2,0,4,0,6.1c0,0-0.2-0.4-0.2-0.4c3.1,2.5,3,6.7,3.8,10.2
				C9.7,44.3,11.2,47.7,13.5,50.4L13.5,50.4z"/>
		</g>
		<path class="st19" d="M41.1,28c0,1.9,0.1,3.8,0.7,5.4c0.7,2,3.8,3.3,7.8,3.9c2.1,0.3,5.1,0.6,7,0.9c1.1,0.2,2,0.5,2.7,1
			c1.2,0.8,2.7,1.8,3.3,2.4c0.3,0.3,0.3,0.7-0.1,0.8c-1.8,0.7-9.5,1.7-16.3,1.7c-14.7,0-21.9-4.7-23.7-6c-0.5-0.4-0.4-0.9,0-1.4
			c0.7-0.9,0.5-1.5-0.4-1.9c-0.5-0.3-1.1-0.5-1.2-1.1c-0.2-0.8-0.2-3.4-0.2-5.6s0-4.8,0.2-5.6c0.2-0.7,0.7-0.9,1.2-1.1
			c0.9-0.4,1.1-1,0.4-1.9c-0.4-0.5-0.5-1,0-1.4c1.8-1.4,9-6,23.7-6c6.7,0,14.5,1,16.3,1.7c0.4,0.1,0.4,0.5,0.1,0.8
			c-0.6,0.6-2.1,1.6-3.3,2.4c-0.7,0.4-1.6,0.8-2.7,1c-1.9,0.4-5,0.6-7,0.9c-4,0.6-7,1.9-7.8,3.9C41.2,24.2,41.1,26.1,41.1,28z"/>
		<path class="st21" d="M88.2,28c0,1.9-0.4,2.5-1.6,2.7s-14.8,0.6-16.4,0.6s-2.1-1.4-2.1-3.2s0.5-3.2,2.1-3.2s15.2,0.5,16.4,0.6
			S88.2,26.1,88.2,28z"/>
		<path class="st21" d="M37.8,43.5c-9.1-1.3-13.9-4.4-15.3-5.5c-0.5-0.4-0.4-0.9,0-1.4c0.2-0.2,0.3-0.4,0.3-0.6
			C33.7,36.8,37.3,39.3,37.8,43.5z M37.8,12.5c-9.1,1.3-13.9,4.4-15.3,5.5c-0.5,0.4-0.4,0.9,0,1.4c0.2,0.2,0.3,0.4,0.3,0.6
			C33.7,19.2,37.3,16.7,37.8,12.5z M99.1,38.3c8-0.9,8.5-1,10-2c0.1-1.3,0.1-2.7,0.2-4.2c-1.1,0.5-1.7,0.6-5.9,0.9
			C102,34.7,100.6,36.5,99.1,38.3z M103.4,23c4.2,0.3,4.8,0.4,5.9,0.9c0-1.4-0.1-2.8-0.2-4.2c-1.5-1-2-1.1-10-2
			C100.6,19.5,102,21.3,103.4,23z"/>
		<g>
			<path class="st16" d="M65.5,13c11.1,1.2,22.1,3,31,4.3"/>
			<path class="st20" d="M65.5,13c10.4,0.9,20.7,2.4,31,3.8c0.7,0.1,0.5,1.1-0.1,1C86.1,16.1,75.9,14.3,65.5,13L65.5,13z"/>
		</g>
		<g>
			<path class="st16" d="M65.5,43c11.1-1.2,22.1-3,31-4.3"/>
			<path class="st20" d="M65.5,43c10.4-1.2,20.6-3.1,30.9-4.8c0.6-0.1,0.8,0.9,0.2,1C86.3,40.6,75.9,42.1,65.5,43L65.5,43z"/>
		</g>
		<path class="st19" d="M102.6,28c0,0.8-0.3,1.7-0.3,1.7s1.8,0.1,2.3,0.2c0.4,0.1,0.7,0.7,0.2,1.3c-4.2,5.5-10.7,13.1-14.8,17.3
			c-3.2,3.3-7.9,4-11.1,4.2c-0.9,0.1-1.1-0.5-0.7-1.2c0.3-0.6,14.1-20,14.5-20.5c-1.3-0.8-1.7-2-1.7-3s0.4-2.2,1.7-3
			C92.3,24.5,78.6,5.1,78.2,4.5c-0.4-0.7-0.1-1.3,0.7-1.2c3.1,0.2,7.8,0.8,11.1,4.2c4.1,4.2,10.6,11.8,14.8,17.3
			c0.5,0.6,0.3,1.2-0.2,1.3c-0.4,0.1-2.3,0.2-2.3,0.2S102.6,27.2,102.6,28z"/>
	</g>
</g>
</svg>
