<?xml version="1.0" encoding="utf-8"?>
<!-- Generator: Adobe Illustrator 28.0.0, SVG Export Plug-In . SVG Version: 6.00 Build 0)  -->
<svg version="1.1" xmlns="http://www.w3.org/2000/svg" xmlns:xlink="http://www.w3.org/1999/xlink" x="0px" y="0px"
	 viewBox="0 0 112 56" style="enable-background:new 0 0 112 56;" xml:space="preserve">
<style type="text/css">
	.st0{fill:#001A54;}
	.st1{fill:#5500B4;}
	.st2{fill:#FFAFFF;stroke:#001A54;stroke-linecap:round;stroke-linejoin:round;stroke-miterlimit:10;}
	.st3{fill:#FDDEFF;stroke:#001A54;stroke-linecap:round;stroke-linejoin:round;stroke-miterlimit:10;}
	.st4{fill:#FF73FA;stroke:#001A54;stroke-linecap:round;stroke-linejoin:round;stroke-miterlimit:10;}
	.st5{fill:#DC46F3;stroke:#001A54;stroke-linecap:round;stroke-linejoin:round;stroke-miterlimit:10;}
	.st6{fill:#96E7FF;stroke:#001A54;stroke-linecap:round;stroke-linejoin:round;stroke-miterlimit:10;}
	.st7{fill:#D2F5FF;stroke:#001A54;stroke-linecap:round;stroke-linejoin:round;stroke-miterlimit:10;}
	.st8{fill:#52C9FF;stroke:#001A54;stroke-linecap:round;stroke-linejoin:round;stroke-miterlimit:10;}
	.st9{fill:#0091FF;stroke:#001A54;stroke-linecap:round;stroke-linejoin:round;stroke-miterlimit:10;}
	.st10{fill:#96E7FF;}
	
		.st11{fill-rule:evenodd;clip-rule:evenodd;fill:#FFAFFF;stroke:#001A54;stroke-linecap:round;stroke-linejoin:round;stroke-miterlimit:10;}
	.st12{fill-rule:evenodd;clip-rule:evenodd;fill:#FFAFFF;}
	
		.st13{fill-rule:evenodd;clip-rule:evenodd;fill:#A200E6;stroke:#001A54;stroke-linecap:round;stroke-linejoin:round;stroke-miterlimit:10;}
	
		.st14{fill-rule:evenodd;clip-rule:evenodd;fill:#D2F5FF;stroke:#001A54;stroke-linecap:round;stroke-linejoin:round;stroke-miterlimit:10;}
	
		.st15{fill-rule:evenodd;clip-rule:evenodd;fill:#001A54;stroke:#52C9FF;stroke-linecap:round;stroke-linejoin:round;stroke-miterlimit:10;}
	.st16{fill-rule:evenodd;clip-rule:evenodd;fill:#001A54;}
	.st17{fill:#52C9FF;}
	.st18{fill:#001A54;stroke:#52C9FF;stroke-linecap:round;stroke-linejoin:round;stroke-miterlimit:10;}
	
		.st19{fill-rule:evenodd;clip-rule:evenodd;fill:#001A54;stroke:#FF73FA;stroke-linecap:round;stroke-linejoin:round;stroke-miterlimit:10;}
	.st20{fill:#FF73FA;}
	.st21{fill:#001A54;stroke:#FF73FA;stroke-linecap:round;stroke-linejoin:round;stroke-miterlimit:10;}
	
		.st22{fill-rule:evenodd;clip-rule:evenodd;fill:#1446EB;stroke:#001A54;stroke-linecap:round;stroke-linejoin:round;stroke-miterlimit:10;}
	.st23{fill-rule:evenodd;clip-rule:evenodd;fill:#A200E6;stroke:#001A54;stroke-miterlimit:10;}
	.st24{fill-rule:evenodd;clip-rule:evenodd;fill:#A200E6;stroke:#001A54;stroke-linejoin:round;stroke-miterlimit:10;}
	.st25{fill-rule:evenodd;clip-rule:evenodd;fill:#1446EB;stroke:#001A54;stroke-miterlimit:10;}
	.st26{fill-rule:evenodd;clip-rule:evenodd;fill:#1446EB;stroke:#001A54;stroke-linejoin:round;stroke-miterlimit:10;}
	.st27{fill-rule:evenodd;clip-rule:evenodd;fill:#001A54;stroke:#52C9FF;stroke-miterlimit:10;}
	.st28{fill-rule:evenodd;clip-rule:evenodd;fill:#001A54;stroke:#52C9FF;stroke-linejoin:round;stroke-miterlimit:10;}
	.st29{fill-rule:evenodd;clip-rule:evenodd;fill:#001A54;stroke:#FF73FA;stroke-miterlimit:10;}
	.st30{fill-rule:evenodd;clip-rule:evenodd;fill:#001A54;stroke:#FF73FA;stroke-linejoin:round;stroke-miterlimit:10;}
</style>
<g id="Hintergrund">
</g>
<g id="Bahn">
</g>
<g id="Pitstop">
</g>
<g id="Items">
</g>
<g id="QR-Code_x5F_positiv">
</g>
<g id="QR-Code_x5F_negativ">
</g>
<g id="Fahrzeuge" transform="rotate(180, 56, 28)">
	<g>
		<path class="st15" d="M106.1,28c0,0.5,0.2,0.6,0.7,1.4c0.4,0.7,0.1,1.6-0.9,1.7l-0.8,1.1c0,0,1.1-0.9,1.9-0.5
			c0.8,0.3,2.4,1.3,3.2,1.8s0.5,1.2,0.3,1.7c-0.9,1.6-3.7,6.6-4.5,8c-0.3,0.5-0.5,0.9-0.5,1.3c0,0.4,0.1,3.6,0.1,4.2
			c0,0.6-0.2,1.1-1.1,1.3c-7.5,1.8-14.6,4.2-15.6,4.5c-1,0.3-4.9,0.5-15.6,0.6c-13.7,0.2-27.3-2.2-30.7-2.1c-0.7,0-1.6,1.4-2.5,1.5
			c-4,0.6-9.4,0.5-15,0.6c-4.8,0.1-9.7-0.3-12.8-0.6c-0.8-0.1-1.3-0.2-1.8-0.5s-2.8-1.8-3.4-2.2c-0.7-0.5-0.9-0.9-1-2
			c-0.4-5.3-4.6-18-4.7-22.1C1.4,23.9,5.6,11.2,6,5.9c0.1-1.1,0.3-1.5,1-2c0.6-0.3,2.9-1.8,3.4-2.2s1-0.4,1.8-0.5
			c3.1-0.3,8-0.6,12.8-0.6c5.6,0.1,11,0,15,0.6c0.9,0.1,1.8,1.5,2.5,1.5c3.3,0.1,17-2.3,30.7-2.1C83.8,0.8,87.7,1,88.7,1.3
			c1,0.3,8.1,2.7,15.6,4.5c0.9,0.2,1.1,0.7,1.1,1.3s-0.1,3.8-0.1,4.2c0,0.4,0.3,0.9,0.5,1.3c0.9,1.5,3.7,6.4,4.5,8
			c0.2,0.4,0.5,1.2-0.3,1.7s-2.4,1.5-3.2,1.8c-0.9,0.3-1.9-0.5-1.9-0.5l0.8,1.1c0.9,0.2,1.2,1,0.9,1.7
			C106.3,27.4,106.1,27.5,106.1,28z"/>
		<path class="st27" d="M105.1,29.3v-2.5c0,0,1.5-0.6,1.2-1.2c-2.2-3.6-8-13-9.6-15.6c-4.9,0.4-12.4,1.2-17.2,2
			c-0.8,0.1-1.2,0.4-1.8,0.9C72.9,17.4,66.9,23.1,62.8,27c-0.7,0.7-0.9,1,0,1.9c4.1,4,10,9.6,14.9,14.2c0.5,0.5,1,0.8,1.8,0.9
			c4.8,0.8,12.3,1.5,17.2,2c1.7-2.7,7.8-12.6,9.8-15.9C106.7,29.8,105.1,29.3,105.1,29.3z"/>
		<g>
			<path class="st17" d="M96.6,46.1c3-5.5,6.1-10.8,9.4-16.2c0,0-0.1,0.1,0,0.2c0,0.1,0,0.1,0,0c-0.3-0.2-0.9-0.4-1.3-0.6
				c0,0,0-0.4,0-0.4c0-0.2,0-2.8,0-2.9c0.4-0.2,1-0.5,1.2-0.7c0,0,0,0.2,0,0l-0.3-0.5c-3-5-6-10.1-8.8-15.3c3.5,5,6.8,10.2,10,15.3
				c0.6,0.9-0.7,1.7-1.3,2c0,0,0.3-0.5,0.3-0.5l0,2.5l-0.3-0.5c0.7,0.2,2.2,0.8,1.5,1.8C103.5,35.8,100.1,41,96.6,46.1L96.6,46.1z"
				/>
		</g>
		<path class="st15" d="M55.2,28c0,0.4-0.7,1.7-1.3,2.4c-0.4,0.4-0.6,0.6-1.1,0.7c-1.8,0.2-5,0.5-7.1,0.8c-0.7,0.1-1.1,0.7-0.6,1.4
			c0.7,1.1,4,5.9,4.6,6.7c0.3,0.4,0.6,0.6,1.1,0.7c1.2,0,4.5,0.1,6.1,0.1c0.8,0,2.1,0.7,2.8,1.2c0.6,0.4,0.6,0.9-0.3,1
			c-1,0.1-19.1,2.3-20.2,2.4s-1.8,0-2.6-0.2c-0.8-0.2-16.7-4.5-19.4-5.6c-2.7-1.1-4.4-4.4-4.4-11.5s1.7-10.4,4.4-11.5
			s18.6-5.4,19.4-5.6c0.8-0.2,1.4-0.3,2.6-0.2s19.2,2.3,20.2,2.4c0.9,0.1,0.9,0.6,0.3,1c-0.7,0.4-2,1.1-2.8,1.2
			c-1.5,0.1-4.9,0.1-6.1,0.1c-0.6,0-0.9,0.3-1.1,0.7c-0.6,0.9-3.9,5.7-4.6,6.7c-0.5,0.7-0.1,1.3,0.6,1.4c2.2,0.3,5.3,0.6,7.1,0.8
			c0.5,0.1,0.7,0.2,1.1,0.7C54.4,26.3,55.2,27.6,55.2,28z"/>
		<g>
			<path class="st17" d="M38.7,4.9C51.6,4,64.6,3.7,77.6,4.1C64.7,5.1,51.6,5.3,38.7,4.9L38.7,4.9z"/>
		</g>
		<g>
			<path class="st17" d="M38.7,51.1c12.9-0.4,25.9-0.2,38.8,0.8C64.6,52.3,51.6,52,38.7,51.1L38.7,51.1z"/>
		</g>
		<g>
			<path class="st17" d="M7.7,49.9c0.8-0.5,1.8-1,2.3-1.8c0.1-0.2,0-0.4-0.1-0.6l-0.3-0.7c-2.7-6-5.8-12.1-6.4-18.8
				c0.6-6.7,3.7-12.8,6.4-18.8c0,0,0.3-0.7,0.3-0.7C10.4,7.8,9.5,7.3,9,6.9C8.6,6.6,8.1,6.3,7.7,6.1c0.4,0.2,0.9,0.4,1.4,0.7
				c0.6,0.3,1.6,1.1,1.1,1.9c0,0-0.3,0.7-0.3,0.7c-2.2,6-5.2,12.2-5.7,18.6c0.6,6.5,3.5,12.6,5.7,18.6c0,0,0.3,0.7,0.3,0.7
				C10.8,48.8,8.6,49.4,7.7,49.9L7.7,49.9z"/>
		</g>
		<path class="st15" d="M80.8,23.3c-0.6-0.1-5.8-0.7-12.9-1.1c-1.8,1.8-3.6,3.4-5.1,4.9c-0.7,0.7-0.9,1,0,1.9
			c1.5,1.5,3.2,3.1,5.1,4.9c7.1-0.4,12.3-1,12.9-1.1c0.6-0.1,1-0.2,1.4-0.9c0.4-0.7,1.8-3,1.8-3.9s-1.4-3.2-1.8-3.9
			C81.8,23.5,81.4,23.3,80.8,23.3z"/>
		<g>
			<path class="st17" d="M80.1,42.5c2.3-4.4,4.8-8.6,7.3-12.8c0.3-0.6,0.8-1.2,0.8-1.6c0-0.7-1.5-2.7-1.9-3.4
				c-2.1-3.5-4.4-7.4-6.3-11c1.4,2,3.4,4.9,4.8,7c1.1,1.7,2.3,3.6,3.4,5.3c0.4,0.7,0.9,1.2,1,2.1c0,0.9-0.6,1.4-1,2.1
				c0,0-1.1,1.8-1.1,1.8C84.9,35.5,82.6,39,80.1,42.5L80.1,42.5z"/>
		</g>
		<g>
			<path class="st17" d="M101.4,46.5c-6.7-0.2-13.4-0.6-20-1.6c-0.9-0.2-2-0.2-2.9-0.6c-0.5-0.3-0.9-0.6-1.2-1
				c-3.4-3.2-8-7.6-11.4-10.9c-0.7-0.6-2.5-2.3-3.1-3c-1.2-1.1-1.3-1.9,0-3c1.8-1.8,5.4-5.1,7.2-6.9c1.4-1.3,4.9-4.7,6.2-5.9
				c0.7-0.6,1.4-1.5,2.3-2c0.9-0.4,2-0.4,2.9-0.6c6.6-1,13.3-1.4,20-1.6c-6.6,0.9-13.2,1.8-19.8,2.6c-0.7,0.2-2,0.2-2.6,0.5
				c-0.6,0.3-1.5,1.3-2,1.8c-1.3,1.2-4.9,4.6-6.2,5.9c-1.9,1.8-5.4,5.1-7.2,6.9C63,27.5,62.7,28,62.7,28c0.1,0.2,0.4,0.6,0.7,0.8
				c0.6,0.6,2.4,2.3,3.1,3c3.4,3.3,8,7.6,11.4,10.9c1,1.1,2.3,1.1,3.6,1.3C88.1,44.8,94.8,45.6,101.4,46.5L101.4,46.5z"/>
		</g>
		<path class="st28" d="M94.5,32.8c2.9-0.3,10.3-1.2,11.3-1.4c1.1-0.2,1.4-1,1.1-1.7c-0.1-0.3-0.8-1.2-0.8-1.7s0.7-1.5,0.8-1.7
			c0.3-0.7,0-1.5-1.1-1.7c-1-0.2-8.4-1-11.3-1.4"/>
		<g>
			<path class="st17" d="M87.9,43.3c2.4-4.6,5.1-9.1,7.8-13.6c0.4-0.6,0.9-1.3,0.9-1.7c0-0.4-0.5-1.1-0.9-1.8
				c-1.1-1.9-2.4-3.9-3.4-5.8c-1.3-2.3-3.2-5.5-4.4-7.8c1.5,2.1,3.6,5.2,5,7.4c1.2,1.8,2.5,3.8,3.6,5.7c0.4,0.7,1,1.3,1,2.2
				c0,0.5-0.2,1-0.4,1.3C94.2,34,91.2,38.8,87.9,43.3L87.9,43.3z"/>
		</g>
		<path class="st18" d="M48.3,38.1c-4.5,0.2-18.2,0.8-24.6,0.9c-0.7,0-2.3-0.6-2.3-1.3c0-0.7,0.2-0.9,1-1c4.5-0.4,19.3-1.5,23.6-1.8
			C46.8,35.8,47.6,37,48.3,38.1z M21.5,18.4c0,0.7,0.2,0.9,1,1c4.5,0.4,19.3,1.5,23.6,1.8c0.7-1,1.5-2.2,2.2-3.2
			c-4.5-0.2-18.2-0.8-24.6-0.9C23,17,21.5,17.6,21.5,18.4z M94.5,23.2c3.5,0.4,7.1,0.9,9.6,1.1c0.5,0.1,1-0.5,0.7-1.1
			c-0.5-1-2.2-3.8-2.8-4.7c-0.3-0.5-0.5-0.6-0.9-0.6c-0.3,0-7,0.1-9.7,0.1C92.3,19.8,93.5,21.7,94.5,23.2z M91.3,37.9
			c2.8,0,9.4,0.1,9.7,0.1c0.4,0,0.6-0.2,0.9-0.6c0.6-0.9,2.3-3.6,2.8-4.7c0.3-0.6-0.2-1.1-0.7-1.1c-2.5,0.3-6.1,0.7-9.6,1.1
			C93.5,34.3,92.3,36.2,91.3,37.9z"/>
	</g>
</g>
</svg>
