<?xml version="1.0" encoding="UTF-8"?>
<svg xmlns="http://www.w3.org/2000/svg" viewBox="0 0 110 70">
  <defs>
    <style>
      .cls-1 {
        fill: #24210a;
        stroke-miterlimit: 10;
      }

      .cls-1, .cls-2, .cls-3, .cls-4 {
        stroke: #FCF9F0;
      }

      .cls-1, .cls-5, .cls-3 {
        fill-rule: evenodd;
      }

      .cls-6, .cls-5 {
        fill: #FCF9F0;
      }

      .cls-2 {
        fill: #24210a;
      }

      .cls-2, .cls-3, .cls-4 {
        stroke-linecap: round;
        stroke-linejoin: round;
      }

      .cls-3 {
        fill: #24210a;
      }

      .cls-4 {
        fill: #24210a;
      }
    </style>
  </defs>
  <g id="Ebene_4" data-name="Ebene 4">
    <path class="cls-3" d="M4.88,62.56l29.86.63s35.5-.63,42.12-1.49c9.29,2.58,22.63.76,22.63.76,1.41-.19,2.12-.84,2.23-1.99l.76-8.22,2.63-3.17c.79-1.04,1.24-2.3,1.29-3.6v-20.03c-.05-1.3-.5-2.56-1.29-3.6l-2.63-3.17-.76-8.22c-.15-1.32-1.02-1.81-2.23-1.99,0,0-13.34-1.82-22.63.76-6.62-.86-42.12-1.49-42.12-1.49l-29.86.63v54.21Z"/>
    <polygon class="cls-1" points="4.88 62.56 32.34 63.14 32.34 7.78 4.88 8.35 4.88 62.56"/>
    <rect class="cls-4" x="8.44" y="11.98" width="23.9" height="46.96"/>
    <path class="cls-6" d="M76.17,13.73c-13.58-.8-28.53-1.06-42.12-1.54,1.76-.13,3.51-.21,5.27-.3,12.27-.39,24.72-.12,36.85,1.84h0Z"/>
    <path class="cls-6" d="M76.17,57.18c-12.13,1.96-24.58,2.23-36.85,1.84-1.76-.1-3.52-.17-5.27-.3,13.6-.48,28.54-.73,42.12-1.54h0Z"/>
  </g>
  <g id="Ebene_5" data-name="Ebene 5">
    <rect class="cls-2" x="36.76" y="29.22" width="17.82" height="12.48"/>
    <path class="cls-5" d="M79.84,35.46c-.09,7.42-.71,11.1-1.09,13.23s-1.07,5.11-1.52,7.19c-.13.58.15,1.17.65,1.51.88.6,2.47,1.16,3.21,1.34,1.13.28,1.49-.55,1.49-.55,0,0,2.33-6.06,2.21-7.13s-.37-1.18-.28-1.77c.44-2.98,1.33-7.82,1.25-13.82.08-6-.81-10.83-1.25-13.82-.09-.59.17-.7.28-1.77s-2.21-7.13-2.21-7.13c0,0-.36-.83-1.49-.55-.73.18-2.33.75-3.21,1.34-.49.34-.77.93-.65,1.51.45,2.08,1.16,5.17,1.52,7.19s1,5.81,1.09,13.23Z"/>
    <rect class="cls-2" x="7.39" y="20.23" width="7.75" height="12.77" transform="translate(37.88 15.35) rotate(90)"/>
    <rect class="cls-2" x="7.39" y="37.91" width="7.75" height="12.77" transform="translate(-33.03 55.56) rotate(-90)"/>
    <path class="cls-5" d="M101.2,28.07c-.06.47-.51.58-.8.5-1.15-.3-3.38-1.95-6.69-3.27-4.67-1.86-6.98-2.28-6.98-2.72-.01-.8.27-1.61.51-2.41.18-.59,10.44,3.29,12.44,4.89,1.23.98,1.7,1.77,1.53,3.01Z"/>
    <path class="cls-5" d="M101.2,42.85c-.06-.47-.51-.58-.8-.5-1.15.3-3.38,1.95-6.69,3.27-4.67,1.86-6.98,2.28-6.98,2.72-.01.8.27,1.61.51,2.41.18.59,10.44-3.29,12.44-4.89,1.23-.98,1.7-1.77,1.53-3.01Z"/>
    <polygon class="cls-5" points="7.01 8.31 4.88 8.35 4.88 9.67 3.6 9.67 3.6 13.59 4.88 13.59 4.88 14.76 7.01 14.76 7.01 8.31"/>
    <polygon class="cls-5" points="7.01 56.14 4.88 56.14 4.88 57.47 3.6 57.47 3.6 61.39 4.88 61.39 4.88 62.56 7.01 62.6 7.01 56.14"/>
    <path class="cls-3" d="M99.48,8.46s-13.34-1.82-22.63.76c0,0,17.57,3.71,25.62,9.45l-.76-8.22c-.16-1.56-1.43-1.86-2.23-1.99Z"/>
    <path class="cls-3" d="M99.48,62.46s-13.34,1.82-22.63-.76c0,0,17.57-3.71,25.62-9.45l-.76,8.22c-.16,1.56-1.43,1.86-2.23,1.99Z"/>
  </g>
</svg>