<svg width="102" height="57" viewBox="0 0 102 57" fill="none" xmlns="http://www.w3.org/2000/svg">
<path d="M21.413 19.4067H19V37.1411H21.413V19.4067Z" fill="white"/>
<path d="M40.1136 19C35.1313 19 27.3784 33.2779 25.3676 37.1185H28.0487C32.6512 28.2626 38.2145 21.4851 40.1136 21.4851C42.0127 21.4851 47.576 28.2626 52.1785 37.1185H54.8596C52.8488 33.2779 45.096 19 40.1136 19Z" fill="white"/>
<path d="M67.9076 37.3896C72.8899 37.3896 80.33 23.2924 82.3408 19.4293H79.6597C75.0572 28.2852 69.8067 34.9045 67.9076 34.9045C66.0085 34.9045 60.758 28.2852 56.1555 19.4293H53.4744C55.4852 23.2698 62.9476 37.3896 67.9076 37.3896Z" fill="white"/>
</svg>
