<?xml version="1.0" encoding="utf-8"?>
<!-- Generator: Adobe Illustrator 28.0.0, SVG Export Plug-In . SVG Version: 6.00 Build 0)  -->
<svg version="1.1" xmlns="http://www.w3.org/2000/svg" xmlns:xlink="http://www.w3.org/1999/xlink" x="0px" y="0px"
	 viewBox="0 0 200 200" style="enable-background:new 0 0 200 200;" xml:space="preserve">
<style type="text/css">
	.st0{fill:#000000;}
	.st1{fill:#5500B4;}
	.st2{fill:#FFAFFF;stroke:#001A54;stroke-linecap:round;stroke-linejoin:round;stroke-miterlimit:10;}
	.st3{fill:#FDDEFF;stroke:#001A54;stroke-linecap:round;stroke-linejoin:round;stroke-miterlimit:10;}
	.st4{fill:#FF73FA;stroke:#001A54;stroke-linecap:round;stroke-linejoin:round;stroke-miterlimit:10;}
	.st5{fill:#DC46F3;stroke:#001A54;stroke-linecap:round;stroke-linejoin:round;stroke-miterlimit:10;}
	.st6{fill:#96E7FF;stroke:#001A54;stroke-linecap:round;stroke-linejoin:round;stroke-miterlimit:10;}
	.st7{fill:#D2F5FF;stroke:#001A54;stroke-linecap:round;stroke-linejoin:round;stroke-miterlimit:10;}
	.st8{fill:#52C9FF;stroke:#001A54;stroke-linecap:round;stroke-linejoin:round;stroke-miterlimit:10;}
	.st9{fill:#0091FF;stroke:#001A54;stroke-linecap:round;stroke-linejoin:round;stroke-miterlimit:10;}
	.st10{fill: #FFAFFF;}
	
		.st11{fill-rule:evenodd;clip-rule:evenodd;fill:#FFAFFF;stroke:#001A54;stroke-linecap:round;stroke-linejoin:round;stroke-miterlimit:10;}
	.st12{fill-rule:evenodd;clip-rule:evenodd;fill:#FFAFFF;}
	
		.st13{fill-rule:evenodd;clip-rule:evenodd;fill:#A200E6;stroke:#001A54;stroke-linecap:round;stroke-linejoin:round;stroke-miterlimit:10;}
	
		.st14{fill-rule:evenodd;clip-rule:evenodd;fill:#D2F5FF;stroke:#001A54;stroke-linecap:round;stroke-linejoin:round;stroke-miterlimit:10;}
	
		.st15{fill-rule:evenodd;clip-rule:evenodd;fill:#001A54;stroke:#52C9FF;stroke-linecap:round;stroke-linejoin:round;stroke-miterlimit:10;}
	.st16{fill-rule:evenodd;clip-rule:evenodd;fill:#001A54;}
	.st17{fill:#52C9FF;}
	.st18{fill:#001A54;stroke:#52C9FF;stroke-linecap:round;stroke-linejoin:round;stroke-miterlimit:10;}
	
		.st19{fill-rule:evenodd;clip-rule:evenodd;fill:#001A54;stroke:#FF73FA;stroke-linecap:round;stroke-linejoin:round;stroke-miterlimit:10;}
	.st20{fill:#FF73FA;}
	.st21{fill:#001A54;stroke:#FF73FA;stroke-linecap:round;stroke-linejoin:round;stroke-miterlimit:10;}
	
		.st22{fill-rule:evenodd;clip-rule:evenodd;fill:#1446EB;stroke:#001A54;stroke-linecap:round;stroke-linejoin:round;stroke-miterlimit:10;}
	.st23{fill-rule:evenodd;clip-rule:evenodd;fill:#A200E6;stroke:#001A54;stroke-miterlimit:10;}
	.st24{fill-rule:evenodd;clip-rule:evenodd;fill:#A200E6;stroke:#001A54;stroke-linejoin:round;stroke-miterlimit:10;}
	.st25{fill-rule:evenodd;clip-rule:evenodd;fill:#1446EB;stroke:#001A54;stroke-miterlimit:10;}
	.st26{fill-rule:evenodd;clip-rule:evenodd;fill:#1446EB;stroke:#001A54;stroke-linejoin:round;stroke-miterlimit:10;}
	.st27{fill-rule:evenodd;clip-rule:evenodd;fill:#001A54;stroke:#52C9FF;stroke-miterlimit:10;}
	.st28{fill-rule:evenodd;clip-rule:evenodd;fill:#001A54;stroke:#52C9FF;stroke-linejoin:round;stroke-miterlimit:10;}
	.st29{fill-rule:evenodd;clip-rule:evenodd;fill:#001A54;stroke:#FF73FA;stroke-miterlimit:10;}
	.st30{fill-rule:evenodd;clip-rule:evenodd;fill:#001A54;stroke:#FF73FA;stroke-linejoin:round;stroke-miterlimit:10;}
</style>
<g id="Hintergrund">
</g>
<g id="Bahn">
</g>
<g id="Pitstop">
</g>
<g id="Items">
</g>
<g id="QR-Code_x5F_positiv">
	<rect class="st10" width="200" height="200"/>
	<g>
		<g>
			<polygon class="st0" points="73.1,19.3 79.1,19.3 79.1,13.3 73.1,13.3 67.1,13.3 61.1,13.3 61.1,19.3 61.1,25.3 67.1,25.3 
				67.1,19.3 			"/>
		</g>
		<g>
			<polygon class="st0" points="103,13.3 97,13.3 91,13.3 91,19.3 91,25.3 97,25.3 97,19.3 103,19.3 109,19.3 109,13.3 			"/>
		</g>
		<g>
			<rect x="126.9" y="13.3" class="st0" width="6" height="6"/>
		</g>
		<g>
			<rect x="132.9" y="19.3" class="st0" width="6" height="6"/>
		</g>
		<g>
			<polygon class="st0" points="79.1,25.3 73.1,25.3 67.1,25.3 67.1,31.3 73.1,31.3 79.1,31.3 79.1,37.2 85.1,37.2 85.1,31.3 
				91,31.3 91,25.3 85.1,25.3 			"/>
		</g>
		<g>
			<polygon class="st0" points="114.9,25.3 120.9,25.3 120.9,19.3 114.9,19.3 109,19.3 109,25.3 109,31.3 114.9,31.3 			"/>
		</g>
		<g>
			<rect x="126.9" y="25.3" class="st0" width="6" height="6"/>
		</g>
		<g>
			<rect x="61.1" y="31.3" class="st0" width="6" height="6"/>
		</g>
		<g>
			<polygon class="st0" points="120.9,37.2 126.9,37.2 126.9,31.3 120.9,31.3 114.9,31.3 114.9,37.2 			"/>
		</g>
		<g>
			<polygon class="st0" points="103,37.2 109,37.2 109,31.3 103,31.3 97,31.3 97,37.2 97,43.2 103,43.2 			"/>
		</g>
		<g>
			<path class="st0" d="M79.1,49.2h6v6h6v-6h6v6h6v-6h6v6h-6v6h0l0,0v6h-6v-6h-6v6v6v6h6v-6h6h6v-6v-6h6h0l0,0v6h6v6h-6h-6v6v6h6v-6
				h6h6v-6h6v-6h6v-6v-1.9v-4.1v-6h-6v-6h6v-6v-6h-6v6h-6v6h-6h-6v-6h-6v6h-6v6h-6v-6h-6v6h-6v-6h-6h-6v6v0v6h6V49.2z M126.9,55.2
				v-6h6v6v6h0l0,0h-6l0,0h0V55.2z M114.9,49.2h6v6h-6V49.2z"/>
		</g>
		<g>
			<rect x="13.3" y="61.1" class="st0" width="6" height="6"/>
		</g>
		<g>
			<polygon class="st0" points="73.1,59.2 73.1,55.2 67.1,55.2 67.1,49.2 61.1,49.2 61.1,55.2 61.1,61.1 67.1,61.1 67.1,61.1 
				67.1,61.1 67.1,67.1 73.1,67.1 73.1,61.1 			"/>
		</g>
		<g>
			<rect x="162.8" y="61.1" class="st0" width="6" height="6"/>
		</g>
		<g>
			<polygon class="st0" points="174.7,61.1 174.7,67.1 180.7,67.1 180.7,73.1 186.7,73.1 186.7,67.1 186.7,61.1 180.7,61.1 			"/>
		</g>
		<g>
			<polygon class="st0" points="150.8,67.1 150.8,61.1 144.8,61.1 144.8,67.1 144.8,73.1 150.8,73.1 			"/>
		</g>
		<g>
			<rect x="156.8" y="67.1" class="st0" width="6" height="6"/>
		</g>
		<g>
			<polygon class="st0" points="73.1,79.1 73.1,73.1 67.1,73.1 61.1,73.1 61.1,67.1 61.1,61.1 55.2,61.1 49.2,61.1 43.2,61.1 
				43.2,67.1 49.2,67.1 55.2,67.1 55.2,73.1 49.2,73.1 49.2,79.1 55.2,79.1 55.2,85.1 49.2,85.1 49.2,79.1 43.2,79.1 37.2,79.1 
				37.2,85.1 31.3,85.1 31.3,91 25.3,91 25.3,85.1 25.3,79.1 31.3,79.1 31.3,73.1 37.2,73.1 43.2,73.1 43.2,67.1 37.2,67.1 
				37.2,61.1 31.3,61.1 25.3,61.1 25.3,67.1 19.3,67.1 19.3,73.1 13.3,73.1 13.3,79.1 19.3,79.1 19.3,85.1 19.3,91 13.3,91 13.3,97 
				13.3,103 19.3,103 25.3,103 25.3,97 19.3,97 19.3,91 25.3,91 25.3,97 31.3,97 31.3,91 37.2,91 37.2,97 43.2,97 43.2,91 49.2,91 
				55.2,91 61.1,91 61.1,85.1 67.1,85.1 67.1,79.1 			"/>
		</g>
		<g>
			<polygon class="st0" points="79.1,79.1 79.1,85.1 85.1,85.1 91,85.1 91,79.1 85.1,79.1 85.1,73.1 85.1,67.1 85.1,61.1 85.1,59.2 
				85.1,55.2 79.1,55.2 79.1,61.1 79.1,61.1 79.1,61.1 79.1,67.1 73.1,67.1 73.1,73.1 79.1,73.1 			"/>
		</g>
		<g>
			<rect x="138.9" y="73.1" class="st0" width="6" height="6"/>
		</g>
		<g>
			<polygon class="st0" points="168.7,73.1 168.7,79.1 174.7,79.1 180.7,79.1 180.7,73.1 174.7,73.1 			"/>
		</g>
		<g>
			<path class="st0" d="M162.8,85.1v6h6h6v6h-6h-6h-6v6h6h6h6v6v6l0,0h0h-6v6h-6v6h6v6h-6h-6v-6h-6v-6h-6v6v6h-6v-6v-6h-6v6v6h-6v-6
				v-6h-6v6h-6v6h-6v6h-6v6h-6v6h-6v-6h-6h-6v6h6v6v6h6v-6h6h6h6v-6v-6h6v-6h6h6v6h-6v6h6v6h6v6h6h6h6h6v6h6v-6h6v6h6h6v-6h-6v-6h-6
				v-6v-6h6v6h6v-6h6v-6h-6h-6v-6v-6v-6h6v-4.1v-1.9v-6v-6h6v-6v-6h-6h-6v-6h-6v-6h-6V85.1z M156.8,144.8v6v6h-6h-6h-6v-6v-6v-6h6h6
				h6V144.8z"/>
		</g>
		<g>
			<rect x="180.7" y="79.1" class="st0" width="6" height="6"/>
		</g>
		<g>
			<polygon class="st0" points="85.1,91 79.1,91 79.1,85.1 73.1,85.1 67.1,85.1 67.1,91 73.1,91 79.1,91 79.1,97 85.1,97 			"/>
		</g>
		<g>
			<polygon class="st0" points="49.2,103 55.2,103 55.2,109 49.2,109 43.2,109 37.2,109 31.3,109 25.3,109 19.3,109 13.3,109 
				13.3,114.9 19.3,114.9 19.3,114.9 19.3,114.9 19.3,120.9 25.3,120.9 25.3,114.9 31.3,114.9 31.3,114.9 31.3,114.9 31.3,120.9 
				37.2,120.9 43.2,120.9 43.2,114.9 43.2,114.9 43.2,114.9 49.2,114.9 55.2,114.9 61.1,114.9 61.1,109 61.1,103 61.1,97 55.2,97 
				49.2,97 43.2,97 43.2,103 			"/>
		</g>
		<g>
			<polygon class="st0" points="73.1,97 67.1,97 67.1,103 73.1,103 79.1,103 79.1,97 			"/>
		</g>
		<g>
			<polygon class="st0" points="85.1,97 85.1,103 91,103 97,103 97,97 91,97 			"/>
		</g>
		<g>
			<rect x="79.1" y="103" class="st0" width="6" height="6"/>
		</g>
		<g>
			<rect x="138.9" y="103" class="st0" width="6" height="6"/>
		</g>
		<g>
			<polygon class="st0" points="150.8,109 150.8,114.9 156.8,114.9 162.8,114.9 162.8,109 156.8,109 156.8,103 150.8,103 			"/>
		</g>
		<g>
			<rect x="13.3" y="120.9" class="st0" width="6" height="6"/>
		</g>
		<g>
			<rect x="49.2" y="120.9" class="st0" width="6" height="6"/>
		</g>
		<g>
			<polygon class="st0" points="31.3,132.9 31.3,126.9 25.3,126.9 25.3,132.9 19.3,132.9 19.3,138.9 25.3,138.9 31.3,138.9 			"/>
		</g>
		<g>
			<polygon class="st0" points="43.2,126.9 37.2,126.9 37.2,132.9 37.2,138.9 43.2,138.9 43.2,132.9 49.2,132.9 49.2,126.9 			"/>
		</g>
		<g>
			<rect x="49.2" y="132.9" class="st0" width="6" height="6"/>
		</g>
		<g>
			<rect x="144.8" y="144.8" class="st0" width="6" height="6"/>
		</g>
		<g>
			<path class="st0" d="M67.1,150.8v-6v-6h6h6h6v-6h6v6h6h6v-6v-6h6h6v-6h6v-6h-6v-6v-6h6v-6h6v6h-6v6v6h6h6v-6v-6v-6h6h6h6h6v-6v0
				v-6h-6v6h-6v-6h-6v-6h-6h-6v6h6v6h-6h-6v-6h-6v6h-6v-6h-6h-6v6v0v6h6v-6h6v6h-6v6h6v6h-6v-6h-6v6v6v1.9v4.1h-6v6h-6v-6h6v-6h-6
				h-6v6h-6v-6h0l0,0h6v-6h-6h-6v6v1.9v4.1v6h6v6h-6v-6h-6h-6v6h6v6v6v6v6h6h6v6h6v-6v-6h-6H67.1z M103,114.9h6l0,0h0v6h-6V114.9
				L103,114.9L103,114.9z"/>
		</g>
		<g>
			<polygon class="st0" points="120.9,156.8 114.9,156.8 114.9,162.8 114.9,168.7 120.9,168.7 120.9,162.8 			"/>
		</g>
		<g>
			<rect x="180.7" y="156.8" class="st0" width="6" height="6"/>
		</g>
		<g>
			<rect x="91" y="168.7" class="st0" width="6" height="6"/>
		</g>
		<g>
			<rect x="109" y="168.7" class="st0" width="6" height="6"/>
		</g>
		<g>
			<rect x="120.9" y="168.7" class="st0" width="6" height="6"/>
		</g>
		<g>
			<polygon class="st0" points="132.9,168.7 132.9,174.7 132.9,180.7 132.9,180.7 132.9,186.7 138.9,186.7 144.8,186.7 144.8,180.7 
				144.8,180.7 144.8,174.7 144.8,168.7 138.9,168.7 			"/>
		</g>
		<g>
			<rect x="180.7" y="168.7" class="st0" width="6" height="6"/>
		</g>
		<g>
			<polygon class="st0" points="162.8,174.7 156.8,174.7 150.8,174.7 150.8,180.7 150.8,180.7 150.8,186.7 156.8,186.7 162.8,186.7 
				168.7,186.7 168.7,180.7 162.8,180.7 			"/>
		</g>
		<g>
			<polygon class="st0" points="174.7,180.7 174.7,180.7 174.7,186.7 180.7,186.7 180.7,180.7 180.7,180.7 180.7,174.7 174.7,174.7 
							"/>
		</g>
		<g>
			<polygon class="st0" points="91,180.7 85.1,180.7 85.1,174.7 79.1,174.7 79.1,180.7 73.1,180.7 73.1,174.7 73.1,168.7 
				67.1,168.7 67.1,162.8 61.1,162.8 61.1,168.7 61.1,174.7 67.1,174.7 67.1,180.7 61.1,180.7 61.1,186.7 67.1,186.7 73.1,186.7 
				79.1,186.7 85.1,186.7 91,186.7 97,186.7 103,186.7 103,180.7 97,180.7 			"/>
		</g>
		<g>
			<rect x="109" y="180.7" class="st0" width="6" height="6"/>
		</g>
		<g>
			<rect x="120.9" y="180.7" class="st0" width="6" height="6"/>
		</g>
		<g>
			<path class="st0" d="M55.2,13.3h-6.3H13.3v41.8h41.8V13.3z M48.9,48.9H19.6V19.6h29.3V48.9z"/>
		</g>
		<g>
			<path class="st0" d="M180.4,13.3h-35.6v41.8h41.8V13.3H180.4z M180.4,48.9h-29.3V19.6h29.3V48.9z"/>
		</g>
		<g>
			<path class="st0" d="M13.3,144.8v41.8h41.8v-41.8h-6.3H13.3z M48.9,180.4H19.6v-29.3h29.3V180.4z"/>
		</g>
		<g>
			<rect x="25.3" y="25.3" class="st0" width="17.9" height="17.9"/>
		</g>
		<g>
			<rect x="156.8" y="25.3" class="st0" width="17.9" height="17.9"/>
		</g>
		<g>
			<rect x="25.3" y="156.8" class="st0" width="17.9" height="17.9"/>
		</g>
	</g>
</g>
<g id="QR-Code_x5F_negativ">
</g>
<g id="Fahrzeuge">
</g>
</svg>
