<?xml version="1.0" encoding="utf-8"?>
<!-- Generator: Adobe Illustrator 28.0.0, SVG Export Plug-In . SVG Version: 6.00 Build 0)  -->
<svg version="1.1" xmlns="http://www.w3.org/2000/svg" xmlns:xlink="http://www.w3.org/1999/xlink" x="0px" y="0px"
	 viewBox="0 0 200 200" style="enable-background:new 0 0 200 200;" xml:space="preserve">
<style type="text/css">
	.st0{fill:#001A54;}
	.st1{fill:#5500B4;}
	.st2{fill:#FFAFFF;stroke:#001A54;stroke-linecap:round;stroke-linejoin:round;stroke-miterlimit:10;}
	.st3{fill:#FDDEFF;stroke:#001A54;stroke-linecap:round;stroke-linejoin:round;stroke-miterlimit:10;}
	.st4{fill:#FF73FA;stroke:#001A54;stroke-linecap:round;stroke-linejoin:round;stroke-miterlimit:10;}
	.st5{fill:#DC46F3;stroke:#001A54;stroke-linecap:round;stroke-linejoin:round;stroke-miterlimit:10;}
	.st6{fill:#96E7FF;stroke:#001A54;stroke-linecap:round;stroke-linejoin:round;stroke-miterlimit:10;}
	.st7{fill:#D2F5FF;stroke:#001A54;stroke-linecap:round;stroke-linejoin:round;stroke-miterlimit:10;}
	.st8{fill:#52C9FF;stroke:#001A54;stroke-linecap:round;stroke-linejoin:round;stroke-miterlimit:10;}
	.st9{fill:#0091FF;stroke:#001A54;stroke-linecap:round;stroke-linejoin:round;stroke-miterlimit:10;}
	.st10{fill:#96E7FF;}
	
		.st11{fill-rule:evenodd;clip-rule:evenodd;fill:#FFAFFF;stroke:#001A54;stroke-linecap:round;stroke-linejoin:round;stroke-miterlimit:10;}
	.st12{fill-rule:evenodd;clip-rule:evenodd;fill:#FFAFFF;}
	
		.st13{fill-rule:evenodd;clip-rule:evenodd;fill:#A200E6;stroke:#001A54;stroke-linecap:round;stroke-linejoin:round;stroke-miterlimit:10;}
	
		.st14{fill-rule:evenodd;clip-rule:evenodd;fill:#D2F5FF;stroke:#001A54;stroke-linecap:round;stroke-linejoin:round;stroke-miterlimit:10;}
	
		.st15{fill-rule:evenodd;clip-rule:evenodd;fill:#001A54;stroke:#52C9FF;stroke-linecap:round;stroke-linejoin:round;stroke-miterlimit:10;}
	.st16{fill-rule:evenodd;clip-rule:evenodd;fill:#001A54;}
	.st17{fill:#52C9FF;}
	.st18{fill:#001A54;stroke:#52C9FF;stroke-linecap:round;stroke-linejoin:round;stroke-miterlimit:10;}
	
		.st19{fill-rule:evenodd;clip-rule:evenodd;fill:#001A54;stroke:#FF73FA;stroke-linecap:round;stroke-linejoin:round;stroke-miterlimit:10;}
	.st20{fill:#FF73FA;}
	.st21{fill:#001A54;stroke:#FF73FA;stroke-linecap:round;stroke-linejoin:round;stroke-miterlimit:10;}
	
		.st22{fill-rule:evenodd;clip-rule:evenodd;fill:#1446EB;stroke:#001A54;stroke-linecap:round;stroke-linejoin:round;stroke-miterlimit:10;}
	.st23{fill-rule:evenodd;clip-rule:evenodd;fill:#A200E6;stroke:#001A54;stroke-miterlimit:10;}
	.st24{fill-rule:evenodd;clip-rule:evenodd;fill:#A200E6;stroke:#001A54;stroke-linejoin:round;stroke-miterlimit:10;}
	.st25{fill-rule:evenodd;clip-rule:evenodd;fill:#1446EB;stroke:#001A54;stroke-miterlimit:10;}
	.st26{fill-rule:evenodd;clip-rule:evenodd;fill:#1446EB;stroke:#001A54;stroke-linejoin:round;stroke-miterlimit:10;}
	.st27{fill-rule:evenodd;clip-rule:evenodd;fill:#001A54;stroke:#52C9FF;stroke-miterlimit:10;}
	.st28{fill-rule:evenodd;clip-rule:evenodd;fill:#001A54;stroke:#52C9FF;stroke-linejoin:round;stroke-miterlimit:10;}
	.st29{fill-rule:evenodd;clip-rule:evenodd;fill:#001A54;stroke:#FF73FA;stroke-miterlimit:10;}
	.st30{fill-rule:evenodd;clip-rule:evenodd;fill:#001A54;stroke:#FF73FA;stroke-linejoin:round;stroke-miterlimit:10;}
</style>
<g id="Hintergrund">
</g>
<g id="Bahn">
</g>
<g id="Pitstop">
</g>
<g id="Items">
</g>
<g id="QR-Code_x5F_positiv">
	<rect class="st10" width="200" height="200"/>
	<g>
		<g>
			<rect x="71.1" y="13.3" class="st0" width="5.3" height="5.3"/>
		</g>
		<g>
			<rect x="107.9" y="13.3" class="st0" width="5.3" height="5.3"/>
		</g>
		<g>
			<polygon class="st0" points="134.1,18.6 134.1,13.3 128.9,13.3 123.6,13.3 123.6,18.6 128.9,18.6 			"/>
		</g>
		<g>
			<polygon class="st0" points="60.6,18.6 60.6,13.3 55.4,13.3 55.4,18.6 55.4,23.8 55.4,29.1 60.6,29.1 60.6,23.8 			"/>
		</g>
		<g>
			<polygon class="st0" points="71.1,23.8 71.1,18.6 65.9,18.6 65.9,23.8 65.9,29.1 71.1,29.1 			"/>
		</g>
		<g>
			<polygon class="st0" points="113.1,34.3 113.1,39.6 118.4,39.6 118.4,34.3 123.6,34.3 123.6,39.6 128.9,39.6 134.1,39.6 
				134.1,34.3 139.4,34.3 139.4,29.1 144.6,29.1 144.6,23.8 144.6,18.6 139.4,18.6 139.4,23.8 134.1,23.8 128.9,23.8 123.6,23.8 
				123.6,29.1 118.4,29.1 118.4,23.8 118.4,18.6 113.1,18.6 113.1,23.8 107.9,23.8 107.9,29.1 113.1,29.1 			"/>
		</g>
		<g>
			<rect x="81.6" y="34.3" class="st0" width="5.3" height="5.3"/>
		</g>
		<g>
			<polygon class="st0" points="118.4,44.8 118.4,50.1 113.1,50.1 113.1,44.8 107.9,44.8 107.9,50.1 113.1,50.1 113.1,55.4 
				113.1,60.6 107.9,60.6 107.9,65.9 107.9,71.1 113.1,71.1 113.1,65.9 118.4,65.9 118.4,60.6 118.4,60.6 118.4,60.6 118.4,55.4 
				123.6,55.4 123.6,50.1 123.6,50.1 123.6,44.8 123.6,39.6 118.4,39.6 			"/>
		</g>
		<g>
			<polygon class="st0" points="134.1,39.6 134.1,44.8 139.4,44.8 139.4,50.1 134.1,50.1 134.1,44.8 128.9,44.8 128.9,50.1 
				134.1,50.1 134.1,55.4 139.4,55.4 144.6,55.4 144.6,50.1 144.6,50.1 144.6,44.8 144.6,39.6 144.6,34.3 139.4,34.3 139.4,39.6 			
				"/>
		</g>
		<g>
			<rect x="13.3" y="55.4" class="st0" width="5.3" height="5.3"/>
		</g>
		<g>
			<polygon class="st0" points="92.1,50.1 92.1,55.4 97.4,55.4 102.6,55.4 102.6,50.1 102.6,50.1 102.6,44.8 102.6,39.6 102.6,34.3 
				107.9,34.3 107.9,29.1 102.6,29.1 102.6,23.8 97.4,23.8 97.4,29.1 92.1,29.1 92.1,23.8 92.1,18.6 92.1,13.3 86.9,13.3 81.6,13.3 
				81.6,18.6 76.4,18.6 76.4,23.8 81.6,23.8 81.6,29.1 86.9,29.1 86.9,34.3 92.1,34.3 92.1,39.6 92.1,44.8 97.4,44.8 97.4,50.1 
				92.1,50.1 92.1,44.8 86.9,44.8 86.9,50.1 81.6,50.1 81.6,44.8 76.4,44.8 76.4,50.1 71.1,50.1 71.1,44.8 71.1,39.6 65.9,39.6 
				65.9,34.3 65.9,29.1 60.6,29.1 60.6,34.3 55.4,34.3 55.4,39.6 60.6,39.6 60.6,44.8 65.9,44.8 65.9,50.1 60.6,50.1 60.6,44.8 
				55.4,44.8 55.4,50.1 60.6,50.1 60.6,55.4 55.4,55.4 50.1,55.4 44.8,55.4 39.6,55.4 34.3,55.4 29.1,55.4 29.1,60.6 29.1,60.6 
				29.1,60.6 23.8,60.6 18.6,60.6 18.6,65.9 23.8,65.9 29.1,65.9 29.1,71.1 29.1,76.4 29.1,81.6 34.3,81.6 34.3,76.4 39.6,76.4 
				39.6,71.1 39.6,65.9 44.8,65.9 44.8,60.6 39.6,60.6 39.6,60.6 39.6,60.6 44.8,60.6 50.1,60.6 55.4,60.6 60.6,60.6 65.9,60.6 
				65.9,55.4 71.1,55.4 71.1,60.6 65.9,60.6 65.9,65.9 71.1,65.9 76.4,65.9 76.4,60.6 76.4,60.6 76.4,60.6 76.4,55.4 81.6,55.4 
				86.9,55.4 86.9,50.1 			"/>
		</g>
		<g>
			<rect x="102.6" y="55.4" class="st0" width="5.3" height="5.3"/>
		</g>
		<g>
			<polygon class="st0" points="144.6,60.6 144.6,60.6 139.4,60.6 134.1,60.6 128.9,60.6 128.9,65.9 134.1,65.9 134.1,71.1 
				139.4,71.1 139.4,65.9 144.6,65.9 144.6,71.1 149.9,71.1 155.2,71.1 160.4,71.1 165.7,71.1 165.7,65.9 165.7,60.6 165.7,60.6 
				165.7,60.6 165.7,55.4 160.4,55.4 160.4,60.6 155.2,60.6 149.9,60.6 149.9,55.4 144.6,55.4 144.6,60.6 			"/>
		</g>
		<g>
			<polygon class="st0" points="176.2,55.4 170.9,55.4 170.9,60.6 176.2,60.6 181.4,60.6 186.7,60.6 186.7,55.4 181.4,55.4 			"/>
		</g>
		<g>
			<rect x="50.1" y="60.6" class="st0" width="5.3" height="5.3"/>
		</g>
		<g>
			<rect x="44.8" y="65.9" class="st0" width="5.3" height="5.3"/>
		</g>
		<g>
			<polygon class="st0" points="176.2,65.9 170.9,65.9 170.9,71.1 170.9,76.4 165.7,76.4 165.7,81.6 170.9,81.6 176.2,81.6 
				176.2,76.4 176.2,71.1 181.4,71.1 186.7,71.1 186.7,65.9 181.4,65.9 			"/>
		</g>
		<g>
			<rect x="65.9" y="71.1" class="st0" width="5.3" height="5.3"/>
		</g>
		<g>
			<polygon class="st0" points="97.4,71.1 97.4,76.4 102.6,76.4 107.9,76.4 107.9,71.1 102.6,71.1 			"/>
		</g>
		<g>
			<polygon class="st0" points="123.6,71.1 123.6,65.9 118.4,65.9 118.4,71.1 118.4,76.4 113.1,76.4 113.1,81.6 118.4,81.6 
				123.6,81.6 123.6,76.4 			"/>
		</g>
		<g>
			<rect x="139.4" y="71.1" class="st0" width="5.3" height="5.3"/>
		</g>
		<g>
			<polygon class="st0" points="18.6,76.4 18.6,71.1 13.3,71.1 13.3,76.4 13.3,81.6 18.6,81.6 23.8,81.6 23.8,76.4 			"/>
		</g>
		<g>
			<rect x="44.8" y="76.4" class="st0" width="5.3" height="5.3"/>
		</g>
		<g>
			<rect x="60.6" y="76.4" class="st0" width="5.3" height="5.3"/>
		</g>
		<g>
			<rect x="92.1" y="76.4" class="st0" width="5.3" height="5.3"/>
		</g>
		<g>
			<rect x="149.9" y="76.4" class="st0" width="5.3" height="5.3"/>
		</g>
		<g>
			<rect x="23.8" y="81.6" class="st0" width="5.3" height="5.3"/>
		</g>
		<g>
			<path class="st0" d="M102.6,81.6v5.3v5.3h-5.3v-5.3h-5.3v-5.3h-5.3v-5.3v-5.3v-5.3h5.3v5.3h5.3v-5.3h5.3v-5.3h-5.3h-5.3v-5.3
				h-5.3v5.3l0,0h0h-5.3v5.3v5.3v5.3v5.3v5.3h-5.3v-5.3h-5.3v5.3h-5.3v5.3h-5.3v-5.3v-5.3h-5.3v5.3h-5.3h-5.3h-5.3v5.3h5.3h5.3v5.3
				h5.3v-5.3h5.3v5.3h-5.3v5.3h5.3v5.3h5.3v-5.3v-5.3h5.3v-5.3h5.3h5.3h5.3h5.3h5.3v5.3h-5.3h-5.3v5.3v5.3h-5.3v-5.3h-5.3h-5.3v5.3
				h5.3v5.3h5.3v5.3h0l0,0h-5.3h0l0,0v-5.3h-5.3h-5.3h-5.3v-5.3h-5.3v5.3v5.3h5.3l0,0h0v5.3h5.3v5.3v5.3h-5.3h-5.3h-5.3v5.3h-5.3
				h-5.3h-5.3v5.3h5.3h5.3h5.3h5.3v5.3v5.3v5.3v5.3v5.3h5.3v-5.3v-5.3h5.3h5.3v-5.3v-5.3h5.3v-5.3v-5.3h-5.3v5.3h-5.3v5.3v5.3h-5.3
				v-5.3v-5.3v-5.3h5.3h5.3v-5.3h5.3h5.3v5.3v5.3h5.3h5.3v-5.3h-5.3v-5.3h5.3v-5.3v-5.3h-5.3v-5.3h5.3h5.3v-5.3v-5.3h-5.3v-5.3h5.3
				h5.3v-5.3v-5.3h5.3v5.3v5.3h-5.3v5.3v5.3h5.3v-5.3h5.3v5.3h5.3v5.3h5.3v-5.3h5.3v-5.3h-5.3v-5.3h-5.3h-5.3v-5.3h5.3v-5.3v0v-5.3
				h-5.3v5.3h-5.3v-5.3h5.3v-5.3h-5.3H102.6z M81.6,128.9h-5.3v-5.3h5.3V128.9z"/>
		</g>
		<g>
			<polygon class="st0" points="181.4,86.9 186.7,86.9 186.7,81.6 186.7,76.4 181.4,76.4 181.4,81.6 176.2,81.6 176.2,86.9 			"/>
		</g>
		<g>
			<polygon class="st0" points="165.7,86.9 165.7,92.1 160.4,92.1 160.4,86.9 160.4,81.6 155.2,81.6 155.2,86.9 155.2,92.1 
				160.4,92.1 160.4,97.4 160.4,102.6 160.4,107.9 155.2,107.9 155.2,113.1 149.9,113.1 149.9,118.4 155.2,118.4 160.4,118.4 
				160.4,113.1 165.7,113.1 165.7,118.4 170.9,118.4 170.9,118.4 170.9,118.4 170.9,123.6 170.9,128.9 176.2,128.9 176.2,134.1 
				170.9,134.1 170.9,139.4 176.2,139.4 176.2,144.6 181.4,144.6 181.4,139.4 181.4,134.1 186.7,134.1 186.7,128.9 186.7,123.6 
				181.4,123.6 176.2,123.6 176.2,118.4 181.4,118.4 181.4,113.1 176.2,113.1 170.9,113.1 170.9,107.9 165.7,107.9 165.7,102.6 
				165.7,97.4 170.9,97.4 176.2,97.4 176.2,102.6 181.4,102.6 186.7,102.6 186.7,97.4 181.4,97.4 181.4,92.1 176.2,92.1 176.2,86.9 
				170.9,86.9 			"/>
		</g>
		<g>
			<polygon class="st0" points="18.6,92.1 18.6,92.1 18.6,86.9 13.3,86.9 13.3,92.1 13.3,92.1 13.3,97.4 18.6,97.4 			"/>
		</g>
		<g>
			<polygon class="st0" points="139.4,92.1 134.1,92.1 134.1,86.9 139.4,86.9 144.6,86.9 149.9,86.9 149.9,81.6 144.6,81.6 
				139.4,81.6 139.4,76.4 134.1,76.4 134.1,71.1 128.9,71.1 128.9,76.4 128.9,81.6 123.6,81.6 123.6,86.9 123.6,92.1 128.9,92.1 
				134.1,92.1 134.1,97.4 139.4,97.4 			"/>
		</g>
		<g>
			<rect x="44.8" y="97.4" class="st0" width="5.3" height="5.3"/>
		</g>
		<g>
			<rect x="128.9" y="97.4" class="st0" width="5.3" height="5.3"/>
		</g>
		<g>
			<polygon class="st0" points="149.9,102.6 155.2,102.6 155.2,97.4 149.9,97.4 149.9,92.1 144.6,92.1 144.6,97.4 144.6,102.6 
				144.6,107.9 144.6,113.1 149.9,113.1 149.9,107.9 			"/>
		</g>
		<g>
			<rect x="170.9" y="102.6" class="st0" width="5.3" height="5.3"/>
		</g>
		<g>
			<polygon class="st0" points="23.8,92.1 23.8,97.4 23.8,102.6 18.6,102.6 18.6,107.9 13.3,107.9 13.3,113.1 18.6,113.1 
				23.8,113.1 29.1,113.1 34.3,113.1 34.3,107.9 29.1,107.9 29.1,102.6 34.3,102.6 34.3,97.4 29.1,97.4 29.1,92.1 34.3,92.1 
				34.3,86.9 29.1,86.9 29.1,92.1 			"/>
		</g>
		<g>
			<rect x="44.8" y="107.9" class="st0" width="5.3" height="5.3"/>
		</g>
		<g>
			<polygon class="st0" points="139.4,107.9 139.4,102.6 134.1,102.6 134.1,107.9 134.1,113.1 134.1,118.4 128.9,118.4 128.9,123.6 
				134.1,123.6 139.4,123.6 139.4,118.4 139.4,118.4 139.4,118.4 144.6,118.4 144.6,113.1 139.4,113.1 			"/>
		</g>
		<g>
			<rect x="181.4" y="107.9" class="st0" width="5.3" height="5.3"/>
		</g>
		<g>
			<polygon class="st0" points="118.4,118.4 113.1,118.4 107.9,118.4 102.6,118.4 97.4,118.4 97.4,123.6 102.6,123.6 102.6,128.9 
				102.6,134.1 102.6,139.4 107.9,139.4 107.9,134.1 107.9,128.9 107.9,123.6 113.1,123.6 113.1,128.9 118.4,128.9 118.4,123.6 			
				"/>
		</g>
		<g>
			<path class="st0" d="M39.6,134.1h5.3h5.3v-5.3h-5.3v-5.3h5.3h5.3v-5.3h-5.3h-5.3h0l0,0v-5.3h-5.3v5.3h-5.3h-5.3h-5.3v5.3h-5.3
				h-5.3v5.3v5.3v5.3v5.3h5.3h5.3h5.3v-5.3h5.3v-5.3H39.6z M29.1,128.9v5.3h-5.3v5.3h-5.3v-5.3v-5.3h5.3H29.1v-5.3h5.3h5.3v5.3h-5.3
				H29.1z"/>
		</g>
		<g>
			<rect x="118.4" y="128.9" class="st0" width="5.3" height="5.3"/>
		</g>
		<g>
			<polygon class="st0" points="134.1,128.9 134.1,134.1 139.4,134.1 144.6,134.1 144.6,128.9 139.4,128.9 			"/>
		</g>
		<g>
			<rect x="149.9" y="128.9" class="st0" width="5.3" height="5.3"/>
		</g>
		<g>
			<polygon class="st0" points="160.4,134.1 165.7,134.1 165.7,128.9 165.7,123.6 160.4,123.6 155.2,123.6 155.2,128.9 160.4,128.9 
							"/>
		</g>
		<g>
			<rect x="92.1" y="134.1" class="st0" width="5.3" height="5.3"/>
		</g>
		<g>
			<rect x="113.1" y="134.1" class="st0" width="5.3" height="5.3"/>
		</g>
		<g>
			<rect x="149.9" y="149.9" class="st0" width="5.3" height="5.3"/>
		</g>
		<g>
			<path class="st0" d="M128.9,155.2h5.3h5.3v5.3h-5.3h-5.3h-5.3v5.3h5.3v5.3h5.3v-5.3h5.3v5.3h-5.3v5.3h5.3h5.3h5.3h5.3v-5.3h-5.3
				v-5.3h5.3v5.3h5.3v5.3v5.3h-5.3h-5.3v5.3h5.3h5.3v-5.3h5.3h5.3h5.3h5.3h5.3v-5.3v-5.3v-5.3v-5.3v-5.3h-5.3h-5.3v-5.3h-5.3h-5.3
				v-5.3v-5.3h-5.3v-5.3h-5.3v5.3h-5.3h-5.3h-5.3v5.3h-5.3h-5.3h-5.3v5.3h5.3V155.2z M165.7,165.7v-5.3v-5.3h5.3v5.3h5.3h5.3v5.3
				h-5.3h-5.3v5.3h-5.3V165.7z M144.6,155.2v-5.3v-5.3h5.3h5.3h5.3v5.3v5.3v5.3h-5.3h-5.3h-5.3V155.2z"/>
		</g>
		<g>
			<polygon class="st0" points="71.1,165.7 71.1,170.9 76.4,170.9 76.4,165.7 76.4,160.4 71.1,160.4 			"/>
		</g>
		<g>
			<rect x="92.1" y="160.4" class="st0" width="5.3" height="5.3"/>
		</g>
		<g>
			<polygon class="st0" points="92.1,165.7 86.9,165.7 86.9,170.9 86.9,176.2 86.9,181.4 92.1,181.4 97.4,181.4 97.4,176.2 
				97.4,170.9 92.1,170.9 			"/>
		</g>
		<g>
			<polygon class="st0" points="60.6,170.9 60.6,176.2 60.6,181.4 55.4,181.4 55.4,186.7 60.6,186.7 60.6,181.4 65.9,181.4 
				65.9,186.7 71.1,186.7 76.4,186.7 76.4,181.4 76.4,181.4 76.4,176.2 71.1,176.2 71.1,170.9 65.9,170.9 			"/>
		</g>
		<g>
			<polygon class="st0" points="86.9,149.9 81.6,149.9 81.6,155.2 76.4,155.2 76.4,160.4 81.6,160.4 81.6,165.7 86.9,165.7 
				86.9,160.4 86.9,155.2 92.1,155.2 97.4,155.2 97.4,160.4 102.6,160.4 102.6,155.2 107.9,155.2 113.1,155.2 113.1,160.4 
				107.9,160.4 107.9,165.7 113.1,165.7 113.1,170.9 107.9,170.9 107.9,165.7 102.6,165.7 97.4,165.7 97.4,170.9 102.6,170.9 
				102.6,176.2 107.9,176.2 113.1,176.2 113.1,181.4 118.4,181.4 123.6,181.4 123.6,176.2 128.9,176.2 128.9,170.9 123.6,170.9 
				118.4,170.9 118.4,165.7 118.4,160.4 118.4,155.2 123.6,155.2 123.6,149.9 118.4,149.9 113.1,149.9 113.1,144.6 107.9,144.6 
				102.6,144.6 102.6,149.9 97.4,149.9 97.4,144.6 92.1,144.6 92.1,149.9 			"/>
		</g>
		<g>
			<rect x="102.6" y="181.4" class="st0" width="5.3" height="5.3"/>
		</g>
		<g>
			<polygon class="st0" points="134.1,181.4 134.1,186.7 139.4,186.7 144.6,186.7 144.6,181.4 139.4,181.4 			"/>
		</g>
		<g>
			<path class="st0" d="M50.1,13.3h-5.5H13.3v36.8h36.8V13.3z M44.6,44.6H18.8V18.8h25.7V44.6z"/>
		</g>
		<g>
			<path class="st0" d="M181.2,13.3h-31.3v36.8h36.8V13.3H181.2z M181.2,44.6h-25.7V18.8h25.7V44.6z"/>
		</g>
		<g>
			<path class="st0" d="M13.3,149.9v36.8h36.8v-36.8h-5.5H13.3z M44.6,181.2H18.8v-25.7h25.7V181.2z"/>
		</g>
		<g>
			<rect x="23.8" y="23.8" class="st0" width="15.8" height="15.8"/>
		</g>
		<g>
			<rect x="160.4" y="23.8" class="st0" width="15.8" height="15.8"/>
		</g>
		<g>
			<rect x="23.8" y="160.4" class="st0" width="15.8" height="15.8"/>
		</g>
	</g>
</g>
<g id="QR-Code_x5F_negativ">
</g>
<g id="Fahrzeuge">
</g>
</svg>
